HIERARCHY
ROOT RootJoint
{
    OFFSET   0.000000   0.000000   0.000000
    CHANNELS 6 Xposition Yposition Zposition Xrotation Yrotation Zrotation
    JOINT pelvis_lowerback
    {
        OFFSET   0.000000   0.093605   0.000000
        CHANNELS 3 Xrotation Yrotation Zrotation
        JOINT lowerback_torso
        {
            OFFSET   0.000000   0.100000   0.000000
            CHANNELS 3 Xrotation Yrotation Zrotation
            JOINT torso_head
            {
                OFFSET   0.000000   0.282350   0.000000
                CHANNELS 3 Xrotation Yrotation Zrotation
                End Site
                {
                    OFFSET   0.000000   0.192650   0.000000
                }
            }
            JOINT rTorso_Clavicle
            {
                OFFSET  -0.001000   0.157500   0.000000
                CHANNELS 3 Xrotation Yrotation Zrotation
                JOINT rShoulder
                {
                    OFFSET  -0.117647   0.000000   0.000000
                    CHANNELS 3 Xrotation Yrotation Zrotation
                    JOINT rElbow
                    {
                        OFFSET  -0.245000   0.000000   0.000000
                        CHANNELS 3 Xrotation Yrotation Zrotation
                        JOINT rWrist
                        {
                            OFFSET  -0.240000   0.000000   0.000000
                            CHANNELS 3 Xrotation Yrotation Zrotation
                            End Site
                            {
                                OFFSET  -0.116353  -0.002500   0.000000
                            }
                        }
                    }
                }
            }
            JOINT lTorso_Clavicle
            {
                OFFSET   0.001000   0.157500   0.000000
                CHANNELS 3 Xrotation Yrotation Zrotation
                JOINT lShoulder
                {
                    OFFSET   0.117647   0.000000   0.000000
                    CHANNELS 3 Xrotation Yrotation Zrotation
                    JOINT lElbow
                    {
                        OFFSET   0.245000   0.000000   0.000000
                        CHANNELS 3 Xrotation Yrotation Zrotation
                        JOINT lWrist
                        {
                            OFFSET   0.240000   0.000000   0.000000
                            CHANNELS 3 Xrotation Yrotation Zrotation
                            End Site
                            {
                                OFFSET   0.116353  -0.002500   0.000000
                            }
                        }
                    }
                }
            }
        }
    }
    JOINT rHip
    {
        OFFSET  -0.100000  -0.051395   0.000000
        CHANNELS 3 Xrotation Yrotation Zrotation
        JOINT rKnee
        {
            OFFSET   0.000000  -0.410000   0.000000
            CHANNELS 3 Xrotation Yrotation Zrotation
            JOINT rAnkle
            {
                OFFSET   0.000000  -0.390000   0.000000
                CHANNELS 3 Xrotation Yrotation Zrotation
                JOINT rToeJoint
                {
                    OFFSET   0.000000  -0.050000   0.130000
                    CHANNELS 3 Xrotation Yrotation Zrotation
                    End Site
                    {
                        OFFSET  -0.010000   0.002000   0.060000
                    }
                }
            }
        }
    }
    JOINT lHip
    {
        OFFSET   0.100000  -0.051395   0.000000
        CHANNELS 3 Xrotation Yrotation Zrotation
        JOINT lKnee
        {
            OFFSET   0.000000  -0.410000   0.000000
            CHANNELS 3 Xrotation Yrotation Zrotation
            JOINT lAnkle
            {
                OFFSET   0.000000  -0.390000   0.000000
                CHANNELS 3 Xrotation Yrotation Zrotation
                JOINT lToeJoint
                {
                    OFFSET   0.000000  -0.050000   0.130000
                    CHANNELS 3 Xrotation Yrotation Zrotation
                    End Site
                    {
                        OFFSET   0.010000   0.002000   0.060000
                    }
                }
            }
        }
    }
}
MOTION
Frames: 10
Frame Time:   0.008333
 -2.248044   0.977706   4.132870   5.458651  11.832249   0.487620  -1.407844   0.033586  -0.820476  -7.491908  -2.112205   0.672972   2.295724  -2.269254  -1.619105 -10.814816  -3.997207 -28.946660 -48.174329   6.990397  -6.442522  -0.145760  46.402672   0.117815  -1.447806   3.086420 -23.169129  -9.203208   3.838261  30.345275 -41.976080 -11.621609   7.536670  -0.210233 -50.508588  -0.137454   0.950229  -7.107813  28.815494 -14.092875   4.127184 -18.736127  28.985256   0.002794   0.007021  10.196246  -0.026709   4.807838  -0.302668   0.002694   0.001011 -14.643919  -5.881258  14.666660  31.891111  -0.017511  -0.007498   7.746124  -1.377136  -3.128790  -6.174334  -0.015301  -0.001375
 -2.248907   0.969228   4.134156   5.358479  11.964339   0.397070  -1.275803   0.030330  -0.870179  -7.720854  -2.079156   0.680830   2.453789  -2.177570  -1.423843 -11.087504  -3.578798 -29.293173 -48.459580   7.916696  -6.843053  -0.166754  49.057758   0.140121  -1.486343   2.907496 -23.266732  -9.531429   3.303797  30.956440 -42.581193 -12.682737   8.054185  -0.232943 -52.836388  -0.159839   0.973389  -7.029803  28.750332 -14.263447   4.634430 -18.541050  30.082658   0.004105   0.010577   8.234928   0.064040   4.684543  -0.189555   0.002535   0.001478 -14.881997  -6.565705  14.784824  33.461109  -0.018265  -0.009835   5.993456  -1.384942  -2.654177  -5.984873  -0.013539  -0.001700
 -2.249786   0.960118   4.135513   5.231583  12.076632   0.310288  -1.141650   0.032795  -0.926320  -7.921199  -2.037888   0.695286   2.599811  -2.090315  -1.240220 -11.309247  -3.147116 -29.650086 -48.712025   8.863208  -7.210388  -0.183650  51.613424   0.157759  -1.384748   3.110932 -23.385164  -9.830309   2.770888  31.591454 -43.145644 -13.754943   8.559812  -0.251363 -55.070816  -0.177460   1.118263  -7.216359  28.788765 -14.428997   5.098469 -18.308418  31.205229   0.004817   0.013080   6.393318   0.153714   4.574152  -0.185086   0.002043   0.001203 -15.082394  -7.210934  14.882820  35.031516  -0.018631  -0.011548   4.353932  -1.402859  -2.210317  -5.868636  -0.011565  -0.001722
 -2.250657   0.950411   4.136927   5.103515  12.185390   0.230713  -1.017411   0.040218  -0.985396  -8.099452  -1.991935   0.708053   2.731156  -2.008694  -1.071075 -11.493278  -2.718002 -30.022893 -48.936763   9.791058  -7.554037  -0.196137  54.019918   0.170592  -1.224658   3.458312 -23.494937 -10.100275   2.253859  32.233145 -43.666991 -14.798824   9.044623  -0.263684 -57.174046  -0.189209   1.319498  -7.510850  28.877779 -14.582220   5.522392 -18.059031  32.270467   0.005083   0.014618   4.675699   0.241788   4.474974  -0.179524   0.001649   0.000988 -15.259201  -7.810054  14.952519  36.518876  -0.018365  -0.012419   2.825174  -1.432458  -1.797191  -5.759818  -0.009875  -0.001706
 -2.251515   0.940120   4.138380   4.983486  12.298494   0.157481  -0.901878   0.051220  -1.045269  -8.262825  -1.943539   0.717464   2.851259  -1.932283  -0.914507 -11.652574  -2.302965 -30.398803 -49.139401  10.683686  -7.877779  -0.204734  56.276703   0.179464  -1.041590   3.858629 -23.603795 -10.348337   1.761503  32.861614 -44.149162 -15.797476   9.504534  -0.270142 -59.145723  -0.195734   1.542917  -7.845017  28.998011 -14.725714   5.911774 -17.800476  33.268116   0.005072   0.015475   3.073011   0.327469   4.385712  -0.173174   0.001333   0.000821 -15.424241  -8.366765  14.995654  37.911458  -0.017589  -0.012600   1.398743  -1.471371  -1.413100  -5.659285  -0.008418  -0.001654
 -2.252360   0.929247   4.139867   4.873961  12.419332   0.089755  -0.794225   0.064910  -1.105057  -8.415034  -1.893990   0.723404   2.962839  -1.860715  -0.768992 -11.794630  -1.908019 -30.766464 -49.323569  11.532029  -8.182479  -0.209970  58.389082   0.185132  -0.849863   4.276029 -23.717850 -10.578888   1.297963  33.463593 -44.595648 -16.742430   9.937162  -0.271397 -60.990430  -0.197877   1.773451  -8.189745  29.140434 -14.860523   6.270272 -17.537421  34.200017   0.004899   0.015850   1.577338   0.410296   4.305328  -0.166912   0.001077   0.000686 -15.582271  -8.884549  15.016159  39.211149  -0.016459  -0.012277   0.067515  -1.517475  -1.056240  -5.567336  -0.007162  -0.001570
 -2.253191   0.917787   4.141387   4.775140  12.549114   0.026886  -0.694435   0.080643  -1.164366  -8.558459  -1.844103   0.726104   3.067433  -1.793666  -0.633451 -11.923720  -1.535911 -31.117785 -49.491734  12.331433  -8.468115  -0.212362  60.363906   0.188225  -0.656797   4.692743 -23.838456 -10.794435   0.864613  34.031165 -45.009386 -17.629996  10.341341  -0.268254 -62.714214  -0.196460   2.003296  -8.530571  29.297991 -14.986944   6.600617 -17.273453  35.070188   0.004637   0.015878   0.181474   0.489966   4.232924  -0.160971   0.000871   0.000577 -15.734828  -9.366316  15.018219  40.423009  -0.015114  -0.011611  -1.174927  -1.568960  -0.724819  -5.483549  -0.006079  -0.001465
 -2.254151   0.905534   4.142488   4.606032  12.661546  -0.026701  -0.353945   0.130799  -1.189480  -8.781318  -1.858340   0.689757   2.991445  -1.737152  -0.468718 -12.153228  -1.154858 -31.416042 -49.708496  13.045636  -8.587718  -0.223767  62.667119   0.202095  -0.578843   4.878391 -23.883277 -11.031549   0.462700  34.595306 -45.627414 -18.312806  10.573208  -0.277110 -64.657540  -0.208115   2.056430  -8.764127  29.266060 -15.401369   6.660114 -16.993576  36.647648   0.002510   0.014007  -2.088399   0.432170   4.133719   0.128792   0.000682   0.000799 -16.151508  -9.537531  15.037772  42.312588  -0.011936  -0.006757  -2.567637  -1.459849  -0.321301  -5.307716  -0.005488  -0.000846
 -2.254306   0.893696   4.143554   4.453499  12.717114  -0.239428  -0.066496   0.228260  -0.927342  -9.012701  -1.858634   0.870897   2.905101  -1.545106  -0.538627 -12.337402  -0.760522 -31.762769 -49.900943  13.810976  -8.713527  -0.231119  64.890815   0.213433  -0.373086   5.369412 -23.964430 -11.217114   0.080194  34.357267 -46.233284 -18.706587  10.612188  -0.280313 -66.587156  -0.222148   2.364002  -9.445892  29.485608 -15.697154   6.677443 -16.847896  38.800837   0.004487   0.009796  -4.823475   0.240314   4.140113  -6.951267  -0.007223   0.011344 -16.533292  -9.687605  15.093850  44.177508  -0.007560  -0.004448  -3.862099  -1.362395   0.060145  -5.142833  -0.004771  -0.000487
 -2.254353   0.881972   4.144520   4.343956  12.688046  -0.495817   0.191036   0.350154  -0.665745  -9.244729  -1.833061   1.020449   2.823414  -1.393962  -0.446994 -12.497988  -0.407584 -31.961517 -50.074348  14.459048  -8.780334  -0.232962  66.954879   0.219398  -0.164179   5.870298 -24.017931 -11.362173  -0.236342  34.191911 -46.762961 -19.040941  10.616214  -0.275270 -68.329072  -0.226455   2.561364  -9.934416  29.637885 -15.979069   6.683257 -16.693200  40.620825   0.005396   0.005394  -7.354794   0.162217   4.172293 -13.600880  -0.013203   0.014985 -16.895703  -9.807621  15.136047  45.935792  -0.003799  -0.004258  -5.069012  -1.281313   0.417967  -4.988276  -0.004089  -0.000352
